HIERARCHY
ROOT Hips
{
	OFFSET -0.001795 -0.223333 0.028219
	CHANNELS 6 Xposition Yposition Zposition Zrotation Yrotation Xrotation 
	JOINT LeftUpLeg
	{
		OFFSET 0.069520 -0.091406 -0.006815
		CHANNELS 3 Zrotation Yrotation Xrotation
		JOINT LeftLeg
		{
			OFFSET 0.034277 -0.375199 -0.004496
			CHANNELS 3 Zrotation Yrotation Xrotation
			JOINT LeftFoot
			{
				OFFSET -0.013596 -0.397961 -0.043693
				CHANNELS 3 Zrotation Yrotation Xrotation
				JOINT LeftToe
				{
					OFFSET 0.026358 -0.055791 0.119288
					CHANNELS 3 Zrotation Yrotation Xrotation
					End Site
					{
						OFFSET 0.000000 0.000000 0.000000
					}
				}
			}
		}
	}
	JOINT RightUpLeg
	{
		OFFSET -0.067670 -0.090522 -0.004320
		CHANNELS 3 Zrotation Yrotation Xrotation
		JOINT RightLeg
		{
			OFFSET -0.038290 -0.382569 -0.008850
			CHANNELS 3 Zrotation Yrotation Xrotation
			JOINT RightFoot
			{
				OFFSET 0.015774 -0.398415 -0.042312
				CHANNELS 3 Zrotation Yrotation Xrotation
				JOINT RightToe
				{
					OFFSET -0.025372 -0.048144 0.123348
					CHANNELS 3 Zrotation Yrotation Xrotation
					End Site
					{
						OFFSET 0.000000 0.000000 0.000000
					}
				}
			}
		}
	}
	JOINT Spine
	{
		OFFSET -0.002533 0.108963 -0.026696
		CHANNELS 3 Zrotation Yrotation Xrotation
		JOINT Spine1
		{
			OFFSET 0.005487 0.135180 0.001092
			CHANNELS 3 Zrotation Yrotation Xrotation
			JOINT Spine2
			{
				OFFSET 0.001457 0.052922 0.025425
				CHANNELS 3 Zrotation Yrotation Xrotation
				JOINT Neck
				{
					OFFSET -0.002778 0.213870 -0.042857
					CHANNELS 3 Zrotation Yrotation Xrotation
					JOINT Head
					{
						OFFSET 0.005152 0.064970 0.051349
						CHANNELS 3 Zrotation Yrotation Xrotation
						End Site
						{
							OFFSET 0.000000 0.000000 0.000000
						}
					}
				}
				JOINT LeftShoulder
				{
					OFFSET 0.078845 0.121749 -0.034090
					CHANNELS 3 Zrotation Yrotation Xrotation
					JOINT LeftArm
					{
						OFFSET 0.090977 0.030469 -0.008868
						CHANNELS 3 Zrotation Yrotation Xrotation
						JOINT LeftForeArm
						{
							OFFSET 0.259612 -0.012772 -0.027456
							CHANNELS 3 Zrotation Yrotation Xrotation
							JOINT LeftHand
							{
								OFFSET 0.249234 0.008986 -0.001171
								CHANNELS 3 Zrotation Yrotation Xrotation
								End Site
								{
									OFFSET 0.000000 0.000000 0.000000
								}
							}
						}
					}
				}
				JOINT RightShoulder
				{
					OFFSET -0.081759 0.118833 -0.038615
					CHANNELS 3 Zrotation Yrotation Xrotation
					JOINT RightArm
					{
						OFFSET -0.096012 0.032551 -0.009143
						CHANNELS 3 Zrotation Yrotation Xrotation
						JOINT RightForeArm
						{
							OFFSET -0.253742 -0.013329 -0.021401
							CHANNELS 3 Zrotation Yrotation Xrotation
							JOINT RightHand
							{
								OFFSET -0.255298 0.007772 -0.005559
								CHANNELS 3 Zrotation Yrotation Xrotation
								End Site
								{
									OFFSET 0.000000 0.000000 0.000000
								}
							}
						}
					}
				}
			}
		}
	}
}
MOTION
Frames: 16
Frame Time: 0.050000
-0.001960 0.942034 0.690720 -1.645387 -56.149982 4.012801 -0.482816 -0.094927 -13.267083 -0.538889 1.033004 8.584614 3.364918 5.985873 5.342951 0.000000 0.000000 0.000000 -3.458000 1.154012 -9.990532 21.964673 5.731587 52.475031 -6.548305 -20.260906 18.504704 0.000000 0.000000 0.000000 -12.229339 2.299443 9.135080 7.940299 -2.220242 -17.336471 -0.997480 3.473286 31.253082 -0.412758 -2.017326 -39.649878 0.000000 0.000000 0.000000 -31.375723 2.124422 9.338152 -37.426417 -20.895306 -3.975901 -0.056395 -42.379097 4.306744 0.000000 0.000000 0.000000 19.099891 15.345868 -2.771028 45.571254 -3.645192 -5.390089 22.895601 45.541766 5.977373 0.000000 0.000000 0.000000 
-0.033725 0.946973 0.711169 -2.135493 -55.842631 4.012112 -0.044562 -0.197145 -9.053975 -0.495289 0.770932 6.545392 3.691436 7.052053 4.598206 0.000000 0.000000 0.000000 -4.330428 1.897618 -14.852271 23.714613 4.624691 50.500854 -10.889837 -25.968623 17.299642 0.000000 0.000000 0.000000 -11.623987 2.284799 10.111410 8.261035 -2.121448 -18.674349 -2.028239 2.040401 32.366330 -1.650680 -1.620395 -41.076781 0.000000 0.000000 0.000000 -29.306457 1.792690 9.491606 -38.016463 -24.345257 -2.750138 3.756617 -45.579929 3.624116 0.000000 0.000000 0.000000 19.546221 15.983662 -3.292350 44.797572 -4.462237 -5.242460 24.441484 47.667629 6.506054 0.000000 0.000000 0.000000 
-0.065762 0.949530 0.729722 -2.198838 -54.866993 3.736586 -0.025604 -0.184743 -5.314434 0.052980 0.409096 4.503404 3.832099 7.649426 4.281288 0.000000 0.000000 0.000000 -5.172281 2.391321 -17.489083 20.576750 4.023145 43.017961 -13.102735 -28.722610 14.285498 0.000000 0.000000 0.000000 -10.927518 2.156154 10.575956 8.627309 -2.270545 -18.007425 -2.677490 0.211597 31.780571 -1.669009 -1.735897 -41.087576 0.000000 0.000000 0.000000 -29.080785 0.886392 10.466536 -37.094502 -27.623463 -1.788205 10.673961 -47.929884 1.098757 0.000000 0.000000 0.000000 19.420634 16.478389 -3.466973 44.941369 -4.267055 -5.012930 26.801655 49.130359 7.360283 0.000000 0.000000 0.000000 
-0.098539 0.950458 0.745868 -2.316210 -54.851507 3.641753 0.999113 0.076566 -2.796029 -0.808596 0.708011 5.136610 3.745192 8.225534 2.793136 0.000000 0.000000 0.000000 -4.791291 2.598379 -18.508022 13.104786 3.795010 33.199013 -12.482761 -27.025033 10.137076 0.000000 0.000000 0.000000 -10.709146 2.276819 11.636635 10.006047 -2.380958 -18.676709 -3.332837 -0.392150 32.212018 -2.246045 -1.495214 -42.157475 0.000000 0.000000 0.000000 -28.858441 0.568232 10.819260 -36.228554 -30.637371 -0.982959 15.882194 -50.116975 -0.903531 0.000000 0.000000 0.000000 19.841215 16.304964 -3.923292 44.228089 -4.636873 -4.909743 28.478272 50.364946 8.212262 0.000000 0.000000 0.000000 
-0.133211 0.949886 0.760043 -2.739998 -54.701137 4.399391 1.775981 0.307844 -0.804923 -0.494345 0.674391 5.581470 3.425954 7.937859 2.148260 0.000000 0.000000 0.000000 -4.668488 2.760037 -19.212323 9.371808 2.085626 21.589607 -9.868101 -22.950244 8.949553 0.000000 0.000000 0.000000 -10.118591 2.103066 11.586575 11.464549 -2.613073 -18.320696 -3.988505 -0.712126 32.674431 -3.084466 -1.066273 -43.391895 0.000000 0.000000 0.000000 -28.156469 1.136859 10.298555 -36.133720 -32.377455 -0.423436 19.405435 -51.165866 -2.092213 0.000000 0.000000 0.000000 19.933324 16.648451 -3.964730 43.793532 -4.381173 -4.641068 29.295231 52.618135 8.832400 0.000000 0.000000 0.000000 
-0.171154 0.947318 0.773483 -3.184835 -54.855411 4.956429 3.017244 0.514049 -0.423512 -0.583738 1.326394 10.086973 3.194638 9.407141 -2.170573 0.000000 0.000000 0.000000 -4.324239 2.718427 -18.952619 7.817567 1.097419 13.562955 -5.938518 -18.075413 10.186850 0.000000 0.000000 0.000000 -8.764438 1.722303 11.338680 10.788738 -2.742791 -16.739321 -2.604012 -0.758843 30.562298 -4.312873 -0.667604 -41.859315 0.000000 0.000000 0.000000 -29.962708 1.975501 10.221278 -34.754978 -32.390623 -0.793107 16.250953 -52.182829 -1.003622 0.000000 0.000000 0.000000 19.029301 16.218606 -3.584851 44.321197 -4.773784 -5.087177 29.537377 53.318861 9.231866 0.000000 0.000000 0.000000 
-0.212702 0.944658 0.786702 -3.394518 -54.446677 5.341708 5.624349 0.878334 -2.729572 -1.512501 3.796795 19.457476 3.814607 9.632348 -0.787230 0.000000 0.000000 0.000000 -3.961029 2.458094 -17.768539 8.324419 0.865759 11.208907 -4.214064 -17.278656 13.405021 0.000000 0.000000 0.000000 -7.009359 1.284923 11.217454 11.199943 -2.684755 -17.596942 -2.451464 0.286754 30.125215 -4.852010 -0.318076 -41.644049 0.000000 0.000000 0.000000 -32.096551 1.692755 10.886139 -34.708070 -30.529786 -1.726433 13.536019 -52.254056 -0.079298 0.000000 0.000000 0.000000 18.452556 14.801305 -3.584654 44.113762 -5.446013 -5.610628 29.681226 53.467819 9.693769 0.000000 0.000000 0.000000 
-0.254697 0.941319 0.799555 -2.768431 -54.158068 3.929181 7.934421 1.638979 -8.360787 -0.006794 9.120509 36.060711 3.418560 7.274700 1.572789 0.000000 0.000000 0.000000 -3.090915 1.794595 -14.471491 8.018787 0.932690 12.088544 -4.569830 -15.564495 9.864538 0.000000 0.000000 0.000000 -6.046298 1.187259 12.097953 10.382926 -2.465311 -18.694822 -0.854426 0.292814 30.942894 -6.187963 0.038914 -39.422120 0.000000 0.000000 0.000000 -35.012997 3.049231 11.062580 -35.091041 -29.925197 -2.521472 9.266595 -51.824899 1.877069 0.000000 0.000000 0.000000 16.807316 14.583085 -3.080082 43.209793 -5.341820 -5.627447 30.879277 52.182580 9.757758 0.000000 0.000000 0.000000 
-0.294114 0.942725 0.813395 -2.297589 -55.224018 2.346527 8.909676 2.848582 -14.777800 5.452760 12.219498 50.566451 0.798846 1.929027 3.928296 0.000000 0.000000 0.000000 -2.023548 1.048088 -9.895032 7.419704 0.906625 11.373916 -3.972149 -13.000379 7.810645 0.000000 0.000000 0.000000 -4.794874 1.071707 13.048419 9.717471 -2.341899 -19.249515 -0.487836 2.449922 31.482356 -6.640746 0.339201 -37.796082 0.000000 0.000000 0.000000 -37.400496 4.565840 10.365750 -36.549817 -27.747250 -3.573072 4.871702 -51.619706 4.181902 0.000000 0.000000 0.000000 16.802065 14.714441 -2.656188 41.330781 -5.344038 -5.301380 29.896558 49.737466 9.159603 0.000000 0.000000 0.000000 
-0.331925 0.946178 0.829523 -1.521524 -56.832352 1.640250 7.534615 3.503260 -19.931995 7.577258 13.015390 55.339236 0.803466 1.940569 3.813453 0.000000 0.000000 0.000000 -1.670965 0.642728 -6.364540 7.168690 0.826891 9.908360 -3.725385 -10.730893 5.628155 0.000000 0.000000 0.000000 -4.095097 0.842627 12.179112 8.787589 -2.382796 -17.991442 0.601801 4.986657 31.135685 -5.862320 0.108228 -34.997138 0.000000 0.000000 0.000000 -38.395467 4.031988 10.412672 -37.809475 -25.220689 -4.167753 3.005090 -50.224380 4.633197 0.000000 0.000000 0.000000 16.407810 14.272409 -2.225087 40.473513 -4.873193 -5.172056 26.326422 48.230672 7.770778 0.000000 0.000000 0.000000 
-0.369055 0.949134 0.846896 -0.914632 -58.709702 0.836782 5.815243 3.865328 -23.495298 5.855898 12.487945 51.239582 1.480388 3.033940 1.423082 0.000000 0.000000 0.000000 -1.999401 0.446507 -2.121120 6.196927 0.686539 7.786975 -2.474360 -8.132148 5.226594 0.000000 0.000000 0.000000 -4.091384 0.903948 12.406863 8.139127 -2.308642 -17.809357 1.329832 7.387136 31.181444 -6.127019 0.432863 -34.352487 0.000000 0.000000 0.000000 -38.296953 5.358283 8.760904 -39.837605 -22.552148 -4.767099 -1.628962 -52.120465 7.542768 0.000000 0.000000 0.000000 15.542372 13.612894 -1.865978 39.781478 -3.111253 -4.688504 22.568208 45.630868 6.068579 0.000000 0.000000 0.000000 
-0.406586 0.949468 0.865537 -1.155348 -59.525521 1.132846 4.380529 3.645510 -24.560388 0.111745 10.050256 38.069064 4.278854 8.455088 0.438178 0.000000 0.000000 0.000000 -2.274703 0.536236 2.566364 6.597817 0.579463 5.174229 -2.356265 -7.095889 4.503619 0.000000 0.000000 0.000000 -3.613399 0.687112 11.271218 7.750316 -2.268275 -17.511676 1.563721 9.665390 31.628562 -6.585321 0.884241 -33.928397 0.000000 0.000000 0.000000 -38.628966 5.321613 8.232250 -40.115681 -21.433783 -5.021541 -3.348497 -52.632323 8.412162 0.000000 0.000000 0.000000 15.438595 12.604237 -1.879853 39.782817 -2.395127 -4.676151 19.151557 44.022229 4.869076 0.000000 0.000000 0.000000 
-0.444374 0.946580 0.884674 -1.253890 -60.277819 1.464054 2.877170 2.978611 -24.089628 -3.777460 4.978761 20.081693 8.076012 13.621704 6.217760 0.000000 0.000000 0.000000 -1.733492 0.719413 6.631979 6.365647 0.514301 3.374363 -2.371039 -6.290222 3.693305 0.000000 0.000000 0.000000 -4.199206 0.749204 10.765100 7.387712 -2.192371 -17.502757 2.357167 11.139567 31.681964 -6.336683 0.912152 -34.437099 0.000000 0.000000 0.000000 -38.015249 5.506227 7.344666 -41.330126 -20.102846 -5.105000 -4.288739 -54.921592 9.563499 0.000000 0.000000 0.000000 15.737431 12.690018 -1.626986 39.367822 -1.622305 -4.434908 15.166669 42.325145 3.546643 0.000000 0.000000 0.000000 
-0.483096 0.940591 0.905210 -1.527043 -60.386944 2.173882 1.874485 2.314168 -23.010621 -4.154178 1.673091 5.033524 11.516792 16.802868 12.885799 0.000000 0.000000 0.000000 -1.694322 1.098735 10.117479 6.587130 0.473707 2.786338 -2.609089 -6.024341 3.015281 0.000000 0.000000 0.000000 -4.365238 0.715389 10.095874 6.547234 -2.043868 -17.589813 2.430560 11.590780 31.907459 -6.937778 1.256532 -32.887811 0.000000 0.000000 0.000000 -37.446561 5.795506 6.749445 -41.950183 -19.685683 -5.040517 -4.102190 -57.409320 10.230568 0.000000 0.000000 0.000000 16.708418 12.551589 -1.950520 39.505095 -0.624863 -4.076212 14.266147 40.532587 3.230394 0.000000 0.000000 0.000000 
-0.524375 0.932328 0.928420 -2.736870 -60.266465 2.828817 0.765958 1.599577 -21.566951 -2.726352 0.669381 -3.499949 15.448197 20.452904 19.354491 0.000000 0.000000 0.000000 -1.163612 1.460986 13.417506 6.290351 0.402625 3.326008 -1.551499 -3.743536 2.279755 0.000000 0.000000 0.000000 -4.757167 0.789121 10.119684 5.808752 -1.912074 -17.843749 3.535169 12.836700 32.230060 -7.162509 1.591595 -33.353303 0.000000 0.000000 0.000000 -35.406738 4.719812 6.450394 -42.707863 -19.729207 -4.428700 -2.236441 -57.374556 9.036827 0.000000 0.000000 0.000000 17.829227 12.394205 -2.002918 39.597102 -0.315152 -3.978503 11.242487 40.779439 2.459305 0.000000 0.000000 0.000000 
-0.569668 0.925037 0.956068 -4.629023 -60.667958 3.940312 0.880969 1.330408 -19.819679 -2.818693 0.710012 -3.240997 19.395441 25.392585 22.220744 0.000000 0.000000 0.000000 -0.787420 1.918932 16.405486 7.104105 0.428071 5.708223 -1.080802 -3.627552 2.943172 0.000000 0.000000 0.000000 -5.168052 0.685060 8.524783 4.580103 -1.747115 -17.459102 3.798915 12.533822 33.143630 -7.839544 1.813494 -34.247810 0.000000 0.000000 0.000000 -33.474021 4.126483 6.725587 -43.324441 -19.111871 -4.431173 2.759351 -55.943882 6.219969 0.000000 0.000000 0.000000 20.754886 13.907932 -2.481505 38.992640 -1.198105 -3.704303 8.740839 40.323161 1.657283 0.000000 0.000000 0.000000 
